<?xml version="1.0" encoding="UTF-8"?>
<!DOCTYPE svg PUBLIC "-//W3C//DTD SVG 1.1//EN" "http://www.w3.org/Graphics/SVG/1.1/DTD/svg11.dtd">
<!-- Creator: CorelDRAW 2019 (64-Bit Оценочная версия) -->
<svg xmlns="http://www.w3.org/2000/svg" xml:space="preserve" width="100%" height="100%" version="1.1" style="shape-rendering:geometricPrecision; text-rendering:geometricPrecision; image-rendering:optimizeQuality; fill-rule:evenodd; clip-rule:evenodd"
viewBox="0 0 3405.53 3879.52"
 xmlns:xlink="http://www.w3.org/1999/xlink">
 <defs>
  <style type="text/css">
   <![CDATA[
    .fil0 {fill:#2B2A29}
   ]]>
  </style>
 </defs>
 <g id="Слой_x0020_1">
  <metadata id="CorelCorpID_0Corel-Layer"/>
  <g id="layer101">
   <path class="fil0" d="M1683.99 3877.98c-17.87,-3.58 -96.16,-44.18 -155.6,-80.57 -39.96,-24.36 -226.74,-131.88 -498.64,-287.16 -68.86,-39.3 -131.56,-75.36 -139.68,-80.23 -14.62,-9.42 -50.35,-29.89 -121.81,-70.17 -21.45,-12.02 -89.99,-51.65 -152.68,-87.71 -62.37,-36.06 -134.16,-76.99 -159.17,-90.95 -25.02,-13.97 -64.32,-36.71 -87.71,-50.35 -23.07,-13.97 -79.59,-46.78 -125.07,-73.09 -154.62,-89.33 -200.1,-117.27 -213.42,-131.89 -3.9,-4.22 -12.34,-16.57 -18.52,-27.29l-11.69 -19.16 0.65 -942.37c0.65,-767.28 1.62,-944 5.2,-951.79 12.02,-26.96 45.15,-55.23 114.34,-96.48 77.64,-46.45 312.18,-181.59 362.2,-208.88 14.29,-7.47 51.65,-28.91 82.84,-47.1 67.24,-39.63 85.75,-48.73 99.4,-48.73 11.04,0 22.41,8.78 28.26,22.09 2.92,6.83 4.22,231.94 5.52,945.95 1.63,909.24 1.95,937.5 7.8,948.54 14.94,28.26 28.59,41.91 59.77,61.72 51,32.16 180.61,108.5 278.39,164.05 50.03,28.26 102.65,58.47 116.94,66.92 14.3,8.44 47.11,27.61 73.09,42.23 25.99,14.61 85.11,48.72 131.57,75.36 201.07,115.97 229.33,131.88 263.44,151.05l36.06 20.14 43.53 0 43.85 0 66.27 -38.33c102,-58.47 130.91,-75.36 181.91,-105.25 47.11,-27.61 203.68,-117.59 216.03,-124.09 3.57,-1.95 8.77,-5.2 11.36,-7.15 2.6,-1.95 43.53,-25.99 90.96,-53.27 86.73,-50.03 224.79,-131.24 305.03,-179.97 48.07,-28.91 65.62,-46.12 79.59,-77.96l8.44 -18.84 0 -529.49 0 -529.17 -8.44 -16.89c-19.17,-38.34 -28.59,-46.78 -90.96,-84.14 -69.52,-41.25 -161.12,-93.88 -262.8,-150.4 -40.93,-23.06 -87.71,-49.38 -103.3,-59.12 -15.92,-9.42 -29.24,-17.22 -29.56,-17.22 -0.65,0 -15.59,-8.12 -33.13,-18.19 -17.87,-10.07 -71.47,-40.28 -119.87,-66.92 -48.08,-26.96 -91.28,-51.65 -95.83,-54.57 -12.67,-8.77 -179.96,-100.05 -211.8,-115.32 -15.59,-7.8 -34.43,-14.94 -41.25,-16.24 -37.04,-6.18 -79.26,14.29 -326.8,159.17 -58.47,34.11 -183.53,103.95 -211.79,118.24 -11.05,5.52 -24.37,10.07 -29.56,10.07 -14.95,0 -24.37,-12.99 -27.29,-36.71 -4.22,-37.03 -7.15,-660.4 -3.25,-689.96 6.5,-47.43 24.69,-73.42 72.44,-103.3 65.62,-41.58 412.55,-240.71 465.5,-267.35 21.12,-10.39 47.75,-12.67 71.14,-5.85 9.75,2.93 35.41,14.3 56.53,25.02 58.14,30.21 234.21,128.63 254.35,142.6 4.55,2.93 15.59,9.75 24.36,14.62 24.37,13.32 237.79,135.14 284.24,162.1 22.41,12.99 83.16,48.07 134.81,77.31 51.97,29.56 122.14,69.84 155.92,89.33 75.04,43.53 190.36,109.8 297.24,170.87 43.85,25.01 104.6,60.09 134.81,77.96 30.53,17.87 74.39,43.21 97.45,56.52 184.19,105.9 221.22,131.57 228.69,158.85 11.37,39.96 11.69,76.02 11.04,949.84 -0.65,472.65 -2.27,881.95 -3.89,909.89 -1.95,34.11 -4.23,53.6 -7.8,60.1 -15.92,30.21 -47.75,53.92 -158.2,116.62 -40.28,23.06 -99.4,56.84 -131.56,75.68 -32.16,18.52 -99.4,57.18 -149.43,85.76 -86.73,49.7 -122.79,70.49 -211.15,121.82 -21.44,12.34 -79.91,45.8 -129.93,74.06 -50.03,28.27 -98.11,56.2 -107.2,61.72 -8.77,5.85 -41.91,24.69 -73.09,42.23 -31.19,17.87 -89.66,51 -129.94,74.39 -40.28,23.07 -130.91,75.37 -201.4,115.65 -168.92,96.8 -189.71,109.15 -242.01,143.9 -25.99,17.22 -87.06,49.05 -112.07,58.8 -25.66,9.42 -45.8,12.02 -63.67,8.45l0 0z"/>
   <path class="fil0" d="M1661.57 2579.58c-20.46,-7.47 -79.58,-39.63 -160.79,-87.71 -34.76,-20.47 -99.73,-58.8 -144.56,-85.11 -115.32,-67.57 -183.86,-110.77 -194.26,-122.14 -4.87,-5.2 -12.99,-17.87 -17.86,-27.61l-8.77 -17.87 0 -289.11 0 -289.11 7.14 -15.59c12.67,-27.29 25.34,-39.63 68.54,-66.6 45.16,-28.58 175.42,-104.92 216.67,-127.33 14.3,-7.8 39.96,-22.42 56.85,-32.49 37.68,-22.74 121.82,-68.87 162.1,-89.01 34.11,-17.21 49.38,-20.14 76.66,-15.26 36.38,6.82 65.62,22.41 389.81,210.82 55.88,32.49 127.99,80.24 137.41,90.96 12.67,15.26 20.14,32.16 23.39,54.9 1.95,12.99 3.25,133.83 3.25,294.63l0 272.87 -12.99 21.11c-7.15,11.7 -15.6,24.69 -19.17,28.59 -8.77,10.39 -73.09,49.37 -213.1,129.29 -65.94,37.68 -126.36,72.11 -133.83,76.66 -60.1,34.76 -131.24,73.41 -147.8,80.24 -27.29,10.71 -65.95,12.99 -88.69,4.87l0 0z"/>
  </g>
 </g>
</svg>
